<svg id="Layer_1" data-name="Layer 1" xmlns="http://www.w3.org/2000/svg" viewBox="0 0 462.45 87.36"><defs><style>.cls-1{fill:#0085ca;}.cls-2{fill:#fff;}</style></defs><title>vestre-slidre-logo_1</title><path id="path4213" class="cls-1" d="M11.08,0C4.24,9.13-.12,20.35,0,32.21.15,47,6.06,57.41,11.08,63.31c10.31,12.16,22.29,19,34.27,24,12-5,24-11.89,34.27-24,5-5.9,10.93-16.33,11.08-31.1C90.82,20.35,86.46,9.13,79.62,0Z"/><path id="path4245" class="cls-2" d="M55.47,3.25c4.27,0,7,1.49,8.93,4.63A11,11,0,0,1,79.62,6.45c4.89,3.61,6.23,10.5,1.78,16.12a10.8,10.8,0,0,1,6,10.82,9.59,9.59,0,0,1-6.11,8.85,11.4,11.4,0,0,1,.46,11.68c-2.67,4.64-6.65,5.7-10.29,5.72.85,5.53-1.12,9.58-4.55,11.73A12.71,12.71,0,0,1,56.45,72.5a10.85,10.85,0,0,1-11.1,9.2,10.85,10.85,0,0,1-11.1-9.2,12.71,12.71,0,0,1-10.43-1.13c-3.43-2.15-5.4-6.2-4.55-11.73-3.64,0-7.62-1.08-10.29-5.72a11.4,11.4,0,0,1,.46-11.68,9.59,9.59,0,0,1-6.11-8.85,10.8,10.8,0,0,1,6-10.82C4.85,17,6.19,10.06,11.08,6.45A11,11,0,0,1,26.3,7.88C28.25,4.74,31,3.3,35.23,3.25A10.75,10.75,0,0,1,45.35,9.74,10.75,10.75,0,0,1,55.47,3.25Z"/><path id="path4237" class="cls-1" d="M35.65,7.55c-5.67,0-7.85,3.85-9,6.7C24.21,9.3,18.09,5.82,13.1,9.48c-4.48,3.27-3.64,10,1.53,14.15C11,25,6.73,27.88,7,33.18c.21,4,3.53,6.26,7.47,7.63C12.2,43.25,10.14,46.45,11.61,51c2,6,8.18,6,11.91,5-1.89,3.35-2.31,8.87.83,11.52,3.89,3.3,8.68,2.93,12.49-.06,0,5.32,2.15,10.65,8.51,10.65s8.5-5.33,8.5-10.65c3.82,3,8.61,3.36,12.5.06,3.14-2.65,2.72-8.17.83-11.52,3.73,1,10,1,11.91-5,1.47-4.51-.59-7.71-2.86-10.15,3.94-1.37,7.26-3.65,7.47-7.63.27-5.3-4-8.23-7.63-9.55,5.17-4.15,6-10.88,1.53-14.15-5-3.66-11.12-.18-13.55,4.77-1.15-2.85-3.33-6.73-9-6.7-4.8,0-8.1,3.75-9.7,8.07-1.6-4.32-4.9-8-9.7-8.07Z"/><path id="path4235" class="cls-2" d="M60.67,50.12c4.08-4.53,7.61-9.6,7.41-15.58-.24-7.31-5.52-12.63-10.46-13.82C52.06,19.37,47.05,24,46.54,27.28a29.79,29.79,0,0,0-.19,6.95c.14,1.08.8,1.42,1.2,1.45,1.79,0,2.45-1.31,4.13-1.26a2.11,2.11,0,1,1,0,4.21c-1.68,0-2.34-1.22-4.13-1.26-.91,0-1.67.21-1.39,1.27.39,1.5,1.47,2.26,1.49,3.8,0,1.33-.6,2.81-2.3,2.81s-2.31-1.48-2.3-2.81c0-1.54,1.1-2.3,1.49-3.8.28-1.06-.48-1.3-1.39-1.27-1.79,0-2.45,1.31-4.13,1.26a2.11,2.11,0,1,1,0-4.21c1.68-.05,2.34,1.26,4.13,1.26.4,0,1.06-.37,1.2-1.45a29.79,29.79,0,0,0-.19-6.95c-.51-3.32-5.52-7.91-11.08-6.56-4.94,1.19-10.22,6.51-10.46,13.82-.2,6,3.33,11.05,7.41,15.58A74.23,74.23,0,0,0,45.35,61.73,74.23,74.23,0,0,0,60.67,50.12Z"/><path class="cls-2" d="M112.74,15.26V13.53H121v1.73l-2.69.36,4.82,13.74,1,3.36.87-3.4,4.44-13.68-2.29-.38V13.53h6.77v1.73l-1.94.38-7.06,20.18h-2.75l-7.51-20.18Z"/><path class="cls-2" d="M135.52,23.15a7.31,7.31,0,0,1,2.8-2.95,7.85,7.85,0,0,1,4.06-1.05,6.22,6.22,0,0,1,4.35,1.41,5.56,5.56,0,0,1,1.64,4.06v.48a9.58,9.58,0,0,1-.18,2.14H138a8.84,8.84,0,0,0,.74,3.57,4.71,4.71,0,0,0,1.77,2.1,4.62,4.62,0,0,0,2.47.67,8.09,8.09,0,0,0,2.47-.41,7,7,0,0,0,2-1l.61,1.4a6,6,0,0,1-1.53,1.09,10.3,10.3,0,0,1-2.17.82,9.18,9.18,0,0,1-2.36.32,7.85,7.85,0,0,1-4.16-1,6.42,6.42,0,0,1-2.52-2.92,10.57,10.57,0,0,1-.84-4.36A9.21,9.21,0,0,1,135.52,23.15Zm9.33,2.39a8.32,8.32,0,0,0,.06-1.08,4.13,4.13,0,0,0-.77-2.56,2.87,2.87,0,0,0-2.41-1,3.35,3.35,0,0,0-2.6,1.05A5.71,5.71,0,0,0,138,25.54Z"/><path class="cls-2" d="M153.37,30.91,154,33a1.73,1.73,0,0,0,.68.55,5.09,5.09,0,0,0,1.2.44,5.89,5.89,0,0,0,1.4.16,3.64,3.64,0,0,0,2.36-.59,2,2,0,0,0,.7-1.64,2,2,0,0,0-.47-1.28,4.62,4.62,0,0,0-1.42-1,23.64,23.64,0,0,0-2.54-1.11,8.49,8.49,0,0,1-3.4-2.05,4.37,4.37,0,0,1-1.07-3.07,3.33,3.33,0,0,1,.8-2.22,5.11,5.11,0,0,1,2.19-1.49,8.56,8.56,0,0,1,3.13-.54,11.8,11.8,0,0,1,2.37.22,17.6,17.6,0,0,1,2.07.55l.53.16v3.56H160.6L160,21.69a1.59,1.59,0,0,0-.94-.63,5.22,5.22,0,0,0-1.72-.26,3.44,3.44,0,0,0-2.08.54,1.71,1.71,0,0,0-.74,1.43,2,2,0,0,0,.44,1.32A3.16,3.16,0,0,0,156,25c.43.22,1,.49,1.8.8l.57.24a21.3,21.3,0,0,1,2.71,1.29,5.46,5.46,0,0,1,1.73,1.54,3.78,3.78,0,0,1,.69,2.3,4.08,4.08,0,0,1-.77,2.47,4.89,4.89,0,0,1-2.22,1.65,9.3,9.3,0,0,1-3.45.59,13.15,13.15,0,0,1-3.14-.41,16.16,16.16,0,0,1-2.62-.85V30.91Z"/><path class="cls-2" d="M165.82,21.26V19.87a8.48,8.48,0,0,0,.94-.31,4,4,0,0,0,.7-.31,2.68,2.68,0,0,0,.79-1.21c.14-.36.34-.92.58-1.69s.4-1.36.49-1.75h1.9l0,4.57h4.92v2.09h-4.9v8.65a18.78,18.78,0,0,0,.1,2.42,1.19,1.19,0,0,0,.42.87,2.38,2.38,0,0,0,1.15.19h0a9.41,9.41,0,0,0,1.72-.18,9.52,9.52,0,0,0,1.49-.38h0l.5,1.4a5.46,5.46,0,0,1-1.32.74,12.32,12.32,0,0,1-1.89.62,7.58,7.58,0,0,1-1.86.25h0a4.16,4.16,0,0,1-2.74-.78,3.29,3.29,0,0,1-.92-2.62V21.26Z"/><path class="cls-2" d="M180.71,34V22.14l-2.08-.58V19.8l4.19-.59h.08l.7.57v1l0,2h0a7.47,7.47,0,0,1,1-1.34,8,8,0,0,1,1.95-1.54,5.09,5.09,0,0,1,2.6-.7,2.46,2.46,0,0,1,1,.17V23a2.22,2.22,0,0,0-.74-.35,3.43,3.43,0,0,0-1-.14,7.52,7.52,0,0,0-2.55.38,6.1,6.1,0,0,0-1.8.94V34.13h3.86v1.69h-9.5V34.24Z"/><path class="cls-2" d="M193.12,23.15a7.25,7.25,0,0,1,2.8-2.95A7.85,7.85,0,0,1,200,19.15a6.22,6.22,0,0,1,4.35,1.41A5.56,5.56,0,0,1,206,24.62v.48a9.58,9.58,0,0,1-.18,2.14H195.64a8.85,8.85,0,0,0,.73,3.57,4.73,4.73,0,0,0,1.78,2.1,4.6,4.6,0,0,0,2.47.67,8.14,8.14,0,0,0,2.47-.41,6.89,6.89,0,0,0,2-1l.62,1.4a6,6,0,0,1-1.53,1.09,10.3,10.3,0,0,1-2.17.82,9.26,9.26,0,0,1-2.37.32,7.82,7.82,0,0,1-4.15-1A6.36,6.36,0,0,1,193,31.88a10.57,10.57,0,0,1-.84-4.36A9.21,9.21,0,0,1,193.12,23.15Zm9.33,2.39a8.32,8.32,0,0,0,.06-1.08,4.07,4.07,0,0,0-.78-2.56,2.83,2.83,0,0,0-2.4-1,3.35,3.35,0,0,0-2.6,1.05,5.71,5.71,0,0,0-1.09,3.56Z"/><path class="cls-2" d="M218.14,29.2h2l.58,3.64a3.82,3.82,0,0,0,1.61.88,7.87,7.87,0,0,0,2.42.36,4.89,4.89,0,0,0,3.29-.95,3.27,3.27,0,0,0,1.11-2.63,3.05,3.05,0,0,0-.61-1.89,5.59,5.59,0,0,0-1.65-1.39c-.69-.4-1.65-.86-2.86-1.4a20.39,20.39,0,0,1-2.84-1.51,7.77,7.77,0,0,1-2.17-2.11,5.24,5.24,0,0,1-.9-3.07,4.9,4.9,0,0,1,.89-2.9,5.81,5.81,0,0,1,2.55-2,9.58,9.58,0,0,1,3.85-.73,12.86,12.86,0,0,1,2.49.23c.76.15,1.55.35,2.37.58a8.18,8.18,0,0,0,1,.26l-.19,4.9h-2L228.53,16a2.63,2.63,0,0,0-1.18-.55,7,7,0,0,0-1.93-.25c-2.64,0-3.95,1-3.95,3.11a2.91,2.91,0,0,0,.6,1.85,5.49,5.49,0,0,0,1.59,1.36c.67.4,1.65.91,3,1.52a33.82,33.82,0,0,1,3.16,1.7,7.71,7.71,0,0,1,2.11,2,4.62,4.62,0,0,1,.88,2.82,5.67,5.67,0,0,1-.9,3,6.65,6.65,0,0,1-2.71,2.36,9.79,9.79,0,0,1-4.39.91,13.44,13.44,0,0,1-2.88-.29,26.32,26.32,0,0,1-2.71-.74,8.4,8.4,0,0,0-1.28-.33Z"/><path class="cls-2" d="M237.42,34V13.54l-2.4-.29V11.86l5-.63h0l.72.5V34l2.49.25v1.59H235V34.23Z"/><path class="cls-2" d="M247.57,34V21.7l-2.12-.6V19.37l4.65-.6h.08l.74.57V34l2.35.25v1.59H245.2V34.23Zm0-21.65a2,2,0,0,1,1.62-.69h0a2,2,0,0,1,1.07.29,2,2,0,0,1,.7.75,2.14,2.14,0,0,1,.24,1,2.44,2.44,0,0,1-.59,1.68,2.16,2.16,0,0,1-1.7.66h0a1.82,1.82,0,0,1-1.39-.57A2,2,0,0,1,247,14,2.51,2.51,0,0,1,247.55,12.33Z"/><path class="cls-2" d="M256.37,23.48a7.82,7.82,0,0,1,3-3.16,8.79,8.79,0,0,1,4.6-1.17,13.73,13.73,0,0,1,2.65.28V14l-2.95-.29V12.26l5.47-.59h.08l.72.53V33.8h1.73v1.53c-.63.15-1.2.28-1.69.37a8.45,8.45,0,0,1-1.53.14,3.05,3.05,0,0,1-.9-.11.83.83,0,0,1-.5-.44,2.2,2.2,0,0,1-.17-1v-.77a7.78,7.78,0,0,1-2.17,1.63,6.58,6.58,0,0,1-6.14-.23,6.17,6.17,0,0,1-2.36-2.66,9.79,9.79,0,0,1-.89-4.38A9.5,9.5,0,0,1,256.37,23.48Zm10.26-1.68a1.87,1.87,0,0,0-1.06-.65,5.8,5.8,0,0,0-1.8-.27,4.29,4.29,0,0,0-3.52,1.65q-1.31,1.63-1.31,5.15A8.45,8.45,0,0,0,259.5,31,4.17,4.17,0,0,0,261,33a3.9,3.9,0,0,0,2.19.63,4.32,4.32,0,0,0,2-.44,5.24,5.24,0,0,0,1.45-1Z"/><path class="cls-2" d="M276.38,34V22.14l-2.08-.58V19.8l4.19-.59h.08l.7.57v1l0,2h0a7,7,0,0,1,1-1.34,8.18,8.18,0,0,1,1.94-1.54,5.15,5.15,0,0,1,2.6-.7,2.48,2.48,0,0,1,1,.17V23a2.22,2.22,0,0,0-.74-.35,3.53,3.53,0,0,0-1-.14,7.48,7.48,0,0,0-2.55.38,6.1,6.1,0,0,0-1.8.94V34.13h3.86v1.69h-9.5V34.24Z"/><path class="cls-2" d="M288.79,23.15a7.25,7.25,0,0,1,2.8-2.95,7.85,7.85,0,0,1,4.06-1.05A6.22,6.22,0,0,1,300,20.56a5.56,5.56,0,0,1,1.64,4.06v.48a9.58,9.58,0,0,1-.18,2.14H291.31a8.85,8.85,0,0,0,.73,3.57,4.77,4.77,0,0,0,1.77,2.1,4.66,4.66,0,0,0,2.48.67,8.14,8.14,0,0,0,2.47-.41,7,7,0,0,0,2-1l.62,1.4a6,6,0,0,1-1.53,1.09,10.3,10.3,0,0,1-2.17.82,9.26,9.26,0,0,1-2.37.32,7.82,7.82,0,0,1-4.15-1,6.44,6.44,0,0,1-2.53-2.92,10.73,10.73,0,0,1-.83-4.36A9.21,9.21,0,0,1,288.79,23.15Zm9.33,2.39a8.32,8.32,0,0,0,.06-1.08,4.07,4.07,0,0,0-.78-2.56,2.85,2.85,0,0,0-2.4-1A3.35,3.35,0,0,0,292.4,22a5.71,5.71,0,0,0-1.09,3.56Z"/><path class="cls-2" d="M314.89,34V13.54l-2.28-.29V11.86l4.88-.63h0l.7.5v14.5l-.06,1.67,6.54-6.81-2.36-.43V19.17h7.46v1.49l-2.3.5-4.27,4.16L329,34l1.75.25v1.59H323.4V34.24l1.76-.28L321,27.27l-2.87,2.84.07,1.55V34l2.11.26v1.58H313V34.23Z"/><path class="cls-2" d="M343.38,20.23a6.42,6.42,0,0,1,2.52,3,10.61,10.61,0,0,1,.82,4.3A8.62,8.62,0,0,1,345.6,32a7.43,7.43,0,0,1-2.94,2.87,8.14,8.14,0,0,1-3.89,1,7.74,7.74,0,0,1-4.24-1.08,6.48,6.48,0,0,1-2.51-3,10.65,10.65,0,0,1-.82-4.31A8.53,8.53,0,0,1,332.32,23a7.55,7.55,0,0,1,2.94-2.89,8,8,0,0,1,3.88-1A7.74,7.74,0,0,1,343.38,20.23ZM342,22.81A3.24,3.24,0,0,0,339,21a3.4,3.4,0,0,0-3,1.57,8.75,8.75,0,0,0-1,4.7,10.45,10.45,0,0,0,1,4.95A3.27,3.27,0,0,0,339,34Q343,34,343,27.75A10.57,10.57,0,0,0,342,22.81Z"/><path class="cls-2" d="M351.29,34.05V22.14l-2.09-.56V19.73l4.32-.59h.07l.71.57V21l0,.7a9,9,0,0,1,1.7-1.2,12.13,12.13,0,0,1,2.22-.94,7.22,7.22,0,0,1,2.11-.37,5.4,5.4,0,0,1,2.6.55,3.47,3.47,0,0,1,1.49,1.68,8.33,8.33,0,0,1,1.58-1,12.75,12.75,0,0,1,2.14-.86,7.39,7.39,0,0,1,2.13-.35,5.36,5.36,0,0,1,2.95.7A3.65,3.65,0,0,1,374.67,22a14,14,0,0,1,.43,3.9v8.16l2.09.24v1.53H370V34.29l1.72-.25V26a10.89,10.89,0,0,0-.25-2.64,2.45,2.45,0,0,0-.93-1.47,3.37,3.37,0,0,0-2-.49,5.11,5.11,0,0,0-1.95.43,7.74,7.74,0,0,0-1.81,1,16,16,0,0,1,.26,3.19v8l2.14.25v1.53h-7.44V34.29l1.94-.25V25.93a12,12,0,0,0-.22-2.62,2.35,2.35,0,0,0-.85-1.42,3.09,3.09,0,0,0-1.87-.48,5.63,5.63,0,0,0-2.15.46,7.75,7.75,0,0,0-2,1.13V34l2,.25v1.53h-7.15V34.29Z"/><path class="cls-2" d="M381.38,34.05V22.14l-2.09-.56V19.73l4.32-.59h.07l.71.57V21l0,.7a8.67,8.67,0,0,1,1.7-1.2,12.34,12.34,0,0,1,2.21-.94,7.34,7.34,0,0,1,2.12-.37,5.33,5.33,0,0,1,2.59.55,3.44,3.44,0,0,1,1.5,1.68,8.22,8.22,0,0,1,1.57-1,13.21,13.21,0,0,1,2.15-.86,7.38,7.38,0,0,1,2.12-.35,5.37,5.37,0,0,1,3,.7A3.65,3.65,0,0,1,404.76,22a14.39,14.39,0,0,1,.43,3.9v8.16l2.09.24v1.53H400.1V34.29l1.73-.25V26a10.89,10.89,0,0,0-.25-2.64,2.5,2.5,0,0,0-.93-1.47,3.37,3.37,0,0,0-2-.49,5.11,5.11,0,0,0-1.95.43,8,8,0,0,0-1.82,1,15.2,15.2,0,0,1,.27,3.19v8l2.14.25v1.53h-7.45V34.29l1.95-.25V25.93a12,12,0,0,0-.22-2.62,2.35,2.35,0,0,0-.85-1.42,3.09,3.09,0,0,0-1.87-.48,5.68,5.68,0,0,0-2.16.46,7.69,7.69,0,0,0-2,1.13V34l2,.25v1.53h-7.15V34.29Z"/><path class="cls-2" d="M421.36,33.51A9.31,9.31,0,0,1,419,35.13a6.57,6.57,0,0,1-2.91.71,6,6,0,0,1-3-.65,3.89,3.89,0,0,1-1.68-2.08,10.69,10.69,0,0,1-.55-3.75V20.87l-1.62-.54V18.91l4.33-.44h0l.61.39V29.2a10.9,10.9,0,0,0,.25,2.61,2.31,2.31,0,0,0,.88,1.37,3.2,3.2,0,0,0,1.82.43,5,5,0,0,0,2.12-.44,7.72,7.72,0,0,0,1.7-1V20.88l-2.09-.57V18.89l4.63-.42h0l.77.39v15h1.76v1.46q-.85.25-1.47.39a6.79,6.79,0,0,1-1.43.14,2.15,2.15,0,0,1-1.38-.36,1.46,1.46,0,0,1-.45-1.21Z"/><path class="cls-2" d="M430.62,34V22.14l-2.1-.56V19.73l4.34-.59h.07l.69.57V21l0,.7a9.68,9.68,0,0,1,1.7-1.2,11,11,0,0,1,2.18-.94,7.51,7.51,0,0,1,2.2-.37,5.34,5.34,0,0,1,2.95.7A3.69,3.69,0,0,1,444.08,22a15.07,15.07,0,0,1,.41,3.93V34l2.11.24v1.54h-7.36V34.28l1.88-.24v-8.1a11.9,11.9,0,0,0-.23-2.61A2.44,2.44,0,0,0,440,21.9a3,3,0,0,0-1.86-.47,5.78,5.78,0,0,0-2.19.46A8.82,8.82,0,0,0,434,23V34l2,.24v1.54H428.7V34.28Z"/><path class="cls-2" d="M449.6,23.15a7.25,7.25,0,0,1,2.8-2.95,7.85,7.85,0,0,1,4.06-1.05,6.22,6.22,0,0,1,4.35,1.41,5.56,5.56,0,0,1,1.64,4.06v.48a9.58,9.58,0,0,1-.18,2.14H452.12a8.85,8.85,0,0,0,.73,3.57,4.77,4.77,0,0,0,1.77,2.1,4.66,4.66,0,0,0,2.48.67,8.14,8.14,0,0,0,2.47-.41,6.89,6.89,0,0,0,2-1l.62,1.4a6,6,0,0,1-1.53,1.09,10.3,10.3,0,0,1-2.17.82,9.26,9.26,0,0,1-2.37.32,7.82,7.82,0,0,1-4.15-1,6.44,6.44,0,0,1-2.53-2.92,10.73,10.73,0,0,1-.83-4.36A9.21,9.21,0,0,1,449.6,23.15Zm9.33,2.39a8.32,8.32,0,0,0,.06-1.08,4.07,4.07,0,0,0-.78-2.56,2.85,2.85,0,0,0-2.4-1,3.35,3.35,0,0,0-2.6,1.05,5.71,5.71,0,0,0-1.09,3.56Z"/><path class="cls-2" d="M124.42,68.12l.79-6.4h-7l-.81,6.41,1.7.31-.09,1h-5.49l.11-.94,1.58-.32L117,54.37l-1.43-.25.13-1.08h5.27l-.11,1.08-1.66.25-.75,6h7l.75-6-1.62-.25.11-1.08h5.32l-.13,1.08-1.48.25L126.6,68.12l1.63.33-.1.94h-5.56l.08-1Z"/><path class="cls-2" d="M138.74,57.22a2.31,2.31,0,0,1,1,.94,2.6,2.6,0,0,1,.34,1.35,3.24,3.24,0,0,1-1.26,2.56,8.5,8.5,0,0,1-2.95,1.6,9.53,9.53,0,0,1-2.91.55,4,4,0,0,0,0,.44,4.85,4.85,0,0,0,.23,1.51A2.88,2.88,0,0,0,134,67.4a1.85,1.85,0,0,0,1.33.49,4.75,4.75,0,0,0,1.82-.38,6.06,6.06,0,0,0,1.81-1.2l.5.91a4.89,4.89,0,0,1-1,1,6.22,6.22,0,0,1-1.55.86,5.17,5.17,0,0,1-1.87.35,4.23,4.23,0,0,1-2.45-.67A4,4,0,0,1,131.11,67a5.51,5.51,0,0,1-.43-2.34,9.14,9.14,0,0,1,.9-3.79A7.74,7.74,0,0,1,133.87,58,5.16,5.16,0,0,1,137,56.88,3.93,3.93,0,0,1,138.74,57.22Zm-1.25,1.32a1.25,1.25,0,0,0-1-.39,2.33,2.33,0,0,0-1.75.81,6,6,0,0,0-1.18,1.94A9,9,0,0,0,133,63a5.86,5.86,0,0,0,2.08-.43,5.58,5.58,0,0,0,1.94-1.18,2.29,2.29,0,0,0,.8-1.73A1.63,1.63,0,0,0,137.49,58.54Z"/><path class="cls-2" d="M142.56,58.11l.19-.87,3.29-.55.53.26-1.5,10.2a3,3,0,0,0,0,.34q0,.48.27.48a.91.91,0,0,0,.45-.16,3.6,3.6,0,0,0,.69-.55l.34.58a4.07,4.07,0,0,1-.54.6,4.31,4.31,0,0,1-.95.66,2.42,2.42,0,0,1-1.16.3c-.91,0-1.37-.42-1.37-1.25l0-.18c0-.47.1-1,.19-1.68s.25-1.7.47-3.14c.34-2.22.56-3.72.67-4.48Zm2.27-5.66a1.78,1.78,0,0,1,.6-.59,1.36,1.36,0,0,1,.73-.23,1.33,1.33,0,0,1,1,.35,1.11,1.11,0,0,1,.37.85,1.61,1.61,0,0,1-.23.82,1.78,1.78,0,0,1-.6.62,1.61,1.61,0,0,1-.81.23,1.26,1.26,0,0,1-1.26-1.26A1.43,1.43,0,0,1,144.83,52.45Z"/><path class="cls-2" d="M151.5,53.26l-1.33-.46.23-.89,2.88-.45.52.29-2.16,15.4a1.42,1.42,0,0,0,0,.33.88.88,0,0,0,.07.36.19.19,0,0,0,.18.13,1,1,0,0,0,.46-.15,3.83,3.83,0,0,0,.69-.55l.33.57a3.05,3.05,0,0,1-.51.59,4,4,0,0,1-.94.67,2.38,2.38,0,0,1-1.15.3,1.24,1.24,0,0,1-1-.34,1.67,1.67,0,0,1-.3-1.11,5.59,5.59,0,0,1,.06-.83Z"/><path class="cls-2" d="M157.18,58.39h-1.29l.21-1,1.33-.52a6,6,0,0,0,.71-1.19c.26-.55.51-1.13.74-1.74h1.05l-.37,2.91h2.8l-.22,1.51h-2.76L158.49,65a16.76,16.76,0,0,0-.18,1.87,1.92,1.92,0,0,0,.07.61.46.46,0,0,0,.27.29,1.33,1.33,0,0,0,.56.09,2.67,2.67,0,0,0,1-.29,5.53,5.53,0,0,0,1-.59l.19.83a3.35,3.35,0,0,1-.84.68,6.6,6.6,0,0,1-1.28.62,4.07,4.07,0,0,1-1.29.25,2.2,2.2,0,0,1-1.43-.44,1.81,1.81,0,0,1-.54-1.47,13.24,13.24,0,0,1,.14-1.45Z"/><path class="cls-2" d="M169.36,58.4l.19-1,2.66-.56.51.26-.21,2.29a8,8,0,0,1,2.07-1.84,4.38,4.38,0,0,1,2.3-.71,2.2,2.2,0,0,1,1.81.76,3.88,3.88,0,0,1,.63,2.49,9.75,9.75,0,0,1-.11,1.33c-.08.5-.19,1.11-.32,1.84q-.1.5-.12.66-.21,1.21-.33,1.95c-.07.5-.12,1-.14,1.47a1.56,1.56,0,0,0,0,.24,1.4,1.4,0,0,0,.05.42.19.19,0,0,0,.18.14,1.78,1.78,0,0,0,.94-.49l.33.57a2.49,2.49,0,0,1-.48.43,3.91,3.91,0,0,1-.89.49,2.71,2.71,0,0,1-1.08.22,1.43,1.43,0,0,1-1.05-.34A1.32,1.32,0,0,1,176,68c0-.39.07-.82.14-1.3s.18-1.08.32-1.81l.06-.37.12-.63c.16-.83.28-1.53.36-2.09a9.83,9.83,0,0,0,.13-1.56,2.88,2.88,0,0,0-.15-1.08.77.77,0,0,0-.39-.45,2,2,0,0,0-.68-.1,3.24,3.24,0,0,0-1.81.74,8.42,8.42,0,0,0-1.82,1.89l-1.1,8.16H169L170.41,59Z"/><path class="cls-2" d="M190.05,57a8,8,0,0,1,1.07.27l1.3-.37L191,67.18a1.35,1.35,0,0,0,0,.22.79.79,0,0,0,.09.42.3.3,0,0,0,.24.15,1,1,0,0,0,.37-.1,3.26,3.26,0,0,0,.57-.38l.34.57a2.31,2.31,0,0,1-.46.5,3.63,3.63,0,0,1-.88.58,2.45,2.45,0,0,1-1.08.26,1.5,1.5,0,0,1-1.06-.35,1.39,1.39,0,0,1-.33-1.1l.08-.69a7.11,7.11,0,0,1-1.63,1.52,3.41,3.41,0,0,1-1.9.62,2.82,2.82,0,0,1-2.54-1.23,5.92,5.92,0,0,1-.82-3.34,8.6,8.6,0,0,1,.86-3.59,8.2,8.2,0,0,1,2.45-3.11A5.81,5.81,0,0,1,189,56.88,5.88,5.88,0,0,1,190.05,57Zm0,1.54a2.58,2.58,0,0,0-1.39-.33,3.23,3.23,0,0,0-2.41,1,6.49,6.49,0,0,0-1.48,2.51,9.27,9.27,0,0,0-.49,2.92c0,2.21.51,3.32,1.53,3.32a2.82,2.82,0,0,0,1.75-.74,8.27,8.27,0,0,0,1.57-1.67Z"/><path class="cls-2" d="M196.44,58.39h-1.29l.22-1,1.32-.52a6,6,0,0,0,.71-1.19c.26-.55.51-1.13.74-1.74h1.05l-.36,2.91h2.79l-.22,1.51h-2.76L197.75,65a16.76,16.76,0,0,0-.18,1.87,1.92,1.92,0,0,0,.07.61.46.46,0,0,0,.27.29,1.33,1.33,0,0,0,.56.09,2.75,2.75,0,0,0,1-.29,5.41,5.41,0,0,0,1-.59l.2.83a3.43,3.43,0,0,1-.85.68,6.33,6.33,0,0,1-1.28.62,4.07,4.07,0,0,1-1.29.25,2.22,2.22,0,0,1-1.43-.44,1.81,1.81,0,0,1-.53-1.47,12.54,12.54,0,0,1,.13-1.45Z"/><path class="cls-2" d="M204.32,59l-1.08-.63.19-1,2.68-.57.52.34L205.88,63q0,.26-.06.45c0,.14,0,.26,0,.37-.08.55-.14,1-.17,1.33s-.05.69-.05,1a2,2,0,0,0,.38,1.4,1.55,1.55,0,0,0,1.14.38,2.74,2.74,0,0,0,1.46-.49,5.42,5.42,0,0,0,1.31-1.22l1.24-9.35h2.14l-1.34,10.25a2.38,2.38,0,0,0,0,.36q0,.45.27.45a1,1,0,0,0,.43-.14,5.09,5.09,0,0,0,.7-.53l.34.57a3.75,3.75,0,0,1-.55.59,4,4,0,0,1-1,.67,2.45,2.45,0,0,1-1.16.3,1.29,1.29,0,0,1-.92-.31,1.14,1.14,0,0,1-.32-.87,2.3,2.3,0,0,1,0-.48v-.1a4.64,4.64,0,0,1-3.57,1.76,2.87,2.87,0,0,1-2-.67,2.93,2.93,0,0,1-.72-2.23,13.33,13.33,0,0,1,.09-1.43c.06-.54.16-1.27.29-2.2Z"/><path class="cls-2" d="M216.3,58.39l.2-1,2.64-.56.52.26-.23,2.48a5.91,5.91,0,0,1,.81-1.17,5,5,0,0,1,1.33-1.1,3.51,3.51,0,0,1,1.74-.46A1,1,0,0,1,224,57l-.48,2.32a2.36,2.36,0,0,0-1.11-.18,3.14,3.14,0,0,0-1.75.59,4.28,4.28,0,0,0-1.44,1.89l-1,7.75h-2.15L217.38,59Z"/><path class="cls-2" d="M227.16,53.26l-1.32-.46.23-.89,2.88-.45.51.29-2.16,15.4a2.63,2.63,0,0,0,0,.33.74.74,0,0,0,.07.36.19.19,0,0,0,.18.13,1,1,0,0,0,.46-.15,3.83,3.83,0,0,0,.69-.55l.33.57a3.46,3.46,0,0,1-.51.59,4.17,4.17,0,0,1-.94.67,2.38,2.38,0,0,1-1.15.3,1.23,1.23,0,0,1-1-.34,1.67,1.67,0,0,1-.31-1.11,5.57,5.57,0,0,1,.07-.83Z"/><path class="cls-2" d="M239.13,57.22a2.36,2.36,0,0,1,1,.94,2.71,2.71,0,0,1,.34,1.35,3.24,3.24,0,0,1-1.26,2.56,8.5,8.5,0,0,1-3,1.6,9.58,9.58,0,0,1-2.92.55c0,.19,0,.34,0,.44a4.87,4.87,0,0,0,.24,1.51,2.88,2.88,0,0,0,.76,1.23,1.81,1.81,0,0,0,1.32.49,4.76,4.76,0,0,0,1.83-.38,5.9,5.9,0,0,0,1.8-1.2l.51.91a5,5,0,0,1-1,1,6.05,6.05,0,0,1-1.55.86,5.13,5.13,0,0,1-1.87.35,4.2,4.2,0,0,1-2.44-.67A3.93,3.93,0,0,1,231.49,67a5.67,5.67,0,0,1-.43-2.34,9.3,9.3,0,0,1,.91-3.79A7.62,7.62,0,0,1,234.25,58a5.18,5.18,0,0,1,3.17-1.09A4,4,0,0,1,239.13,57.22Zm-1.25,1.32a1.25,1.25,0,0,0-1-.39,2.31,2.31,0,0,0-1.75.81A5.86,5.86,0,0,0,234,60.9a9.46,9.46,0,0,0-.54,2.14,5.86,5.86,0,0,0,2.08-.43,5.54,5.54,0,0,0,1.93-1.18,2.3,2.3,0,0,0,.81-1.73A1.68,1.68,0,0,0,237.88,58.54Z"/><path class="cls-2" d="M250.53,57a10.17,10.17,0,0,1,1.13.32l1.31-.45L250.9,70.26a4.92,4.92,0,0,1-1.19,2.64,5.7,5.7,0,0,1-2.18,1.53,6.74,6.74,0,0,1-2.44.48,8.78,8.78,0,0,1-1.35-.11,4.81,4.81,0,0,1-1-.27l.54-2a7.16,7.16,0,0,0,1.33.5,5.62,5.62,0,0,0,1.54.22,4,4,0,0,0,1.42-.19,1.33,1.33,0,0,0,.71-.67,5,5,0,0,0,.39-1.45l.48-3.11a5.17,5.17,0,0,1-1.43,1.15,3.66,3.66,0,0,1-1.81.46,3.31,3.31,0,0,1-2-.58,3.52,3.52,0,0,1-1.2-1.61,6.71,6.71,0,0,1-.39-2.38,8.6,8.6,0,0,1,.86-3.59,8.2,8.2,0,0,1,2.45-3.11,5.8,5.8,0,0,1,3.67-1.25A6.32,6.32,0,0,1,250.53,57Zm0,1.61A2.45,2.45,0,0,0,249,58.2a3.26,3.26,0,0,0-2.42,1,6.52,6.52,0,0,0-1.47,2.54,9.35,9.35,0,0,0-.49,2.91,5,5,0,0,0,.45,2.34,1.37,1.37,0,0,0,1.24.84A3.11,3.11,0,0,0,248,67.3,5.43,5.43,0,0,0,249.4,66Z"/><path class="cls-2" d="M270.77,60.23l-.2,1.72h-9l.2-1.72Z"/><path class="cls-2" d="M286.87,57.22a2.33,2.33,0,0,1,1,.94,2.7,2.7,0,0,1,.33,1.35A3.23,3.23,0,0,1,287,62.07a8.5,8.5,0,0,1-2.95,1.6,9.58,9.58,0,0,1-2.92.55c0,.19,0,.34,0,.44a4.87,4.87,0,0,0,.24,1.51,2.86,2.86,0,0,0,.75,1.23,1.85,1.85,0,0,0,1.33.49,4.76,4.76,0,0,0,1.83-.38,5.9,5.9,0,0,0,1.8-1.2l.51.91a5,5,0,0,1-1,1,6.22,6.22,0,0,1-1.55.86,5.13,5.13,0,0,1-1.87.35,4.2,4.2,0,0,1-2.44-.67A3.93,3.93,0,0,1,279.24,67a5.51,5.51,0,0,1-.43-2.34,9.46,9.46,0,0,1,.9-3.79A7.74,7.74,0,0,1,282,58a5.18,5.18,0,0,1,3.17-1.09A3.9,3.9,0,0,1,286.87,57.22Zm-1.24,1.32a1.27,1.27,0,0,0-1-.39,2.31,2.31,0,0,0-1.75.81,5.86,5.86,0,0,0-1.19,1.94,9,9,0,0,0-.54,2.14,5.77,5.77,0,0,0,2.07-.43,5.49,5.49,0,0,0,1.94-1.18A2.3,2.3,0,0,0,286,59.7,1.68,1.68,0,0,0,285.63,58.54Z"/><path class="cls-2" d="M291.12,53l.18-.89,2.92-.45.56.29-2.32,17.45h-2.15l2.07-15.93Zm6.35,6c.06-.21.11-.41.14-.58a3.22,3.22,0,0,1,.07-.36,1.27,1.27,0,0,1,.52-.87,1.63,1.63,0,0,1,.94-.31,1.17,1.17,0,0,1,.81.32,1,1,0,0,1,.34.78,2,2,0,0,1-.39,1.14A7.92,7.92,0,0,1,298,61c-.81.59-1.69,1.17-2.64,1.76L298.18,67a3.08,3.08,0,0,0,.64.73,1,1,0,0,0,.6.29,1.27,1.27,0,0,0,.55-.16,2.41,2.41,0,0,0,.65-.47l.36.66a2.76,2.76,0,0,1-.65.61,4.59,4.59,0,0,1-1,.5,3.51,3.51,0,0,1-1.14.2,1.65,1.65,0,0,1-.92-.28,2.35,2.35,0,0,1-.78-.86l-3-5.43h0l.92-.69c.66-.48,1.18-.89,1.57-1.22a7.59,7.59,0,0,0,1.12-1.24A2.67,2.67,0,0,0,297.47,59Z"/><path class="cls-2" d="M303.51,58.39h-1.29l.21-1,1.33-.52a6,6,0,0,0,.71-1.19c.26-.55.51-1.13.74-1.74h1.05l-.37,2.91h2.8l-.22,1.51h-2.76L304.82,65a16.76,16.76,0,0,0-.18,1.87,1.92,1.92,0,0,0,.07.61.46.46,0,0,0,.27.29,1.33,1.33,0,0,0,.56.09,2.75,2.75,0,0,0,1-.29,5.75,5.75,0,0,0,1-.59l.19.83a3.35,3.35,0,0,1-.84.68,6.6,6.6,0,0,1-1.28.62,4.07,4.07,0,0,1-1.29.25,2.2,2.2,0,0,1-1.43-.44,1.81,1.81,0,0,1-.54-1.47,13.24,13.24,0,0,1,.14-1.45Z"/><path class="cls-2" d="M317.63,57a8.52,8.52,0,0,1,1.08.27l1.3-.37L318.6,67.18a1.35,1.35,0,0,0,0,.22.71.71,0,0,0,.1.42.27.27,0,0,0,.23.15,1,1,0,0,0,.38-.1,4.24,4.24,0,0,0,.57-.38l.33.57a2,2,0,0,1-.45.5,3.7,3.7,0,0,1-.89.58,2.38,2.38,0,0,1-1.07.26,1.49,1.49,0,0,1-1.06-.35,1.32,1.32,0,0,1-.33-1.1l.07-.69a6.91,6.91,0,0,1-1.63,1.52,3.38,3.38,0,0,1-1.9.62,2.83,2.83,0,0,1-2.54-1.23,6,6,0,0,1-.81-3.34,8.58,8.58,0,0,1,.85-3.59,8.3,8.3,0,0,1,2.45-3.11A5.84,5.84,0,0,1,317.63,57Zm0,1.54a2.56,2.56,0,0,0-1.38-.33,3.25,3.25,0,0,0-2.42,1,6.49,6.49,0,0,0-1.48,2.51,9.54,9.54,0,0,0-.48,2.92c0,2.21.5,3.32,1.52,3.32a2.85,2.85,0,0,0,1.76-.74,8.5,8.5,0,0,0,1.56-1.67Z"/><path class="cls-2" d="M328.32,59c-.05-.4-.2-.61-.43-.61a1.18,1.18,0,0,0-.65.25l-.31-.65a2.28,2.28,0,0,1,.42-.43,3.11,3.11,0,0,1,.76-.49,2.2,2.2,0,0,1,.94-.22,1.74,1.74,0,0,1,.83.17,1,1,0,0,1,.44.48,2.71,2.71,0,0,1,.18.82l.75,7.17.12,2,1.21-1.76c.46-.75.85-1.41,1.16-2a15,15,0,0,0,.83-1.85,13.34,13.34,0,0,0,.59-2.16c0-.11,0-.2,0-.26a1.75,1.75,0,0,0-.05-.4c0-.12-.08-.28-.14-.45a2.19,2.19,0,0,1-.14-.6,1.22,1.22,0,0,1,.29-.87,1,1,0,0,1,.77-.3,1.14,1.14,0,0,1,1,.57A2.93,2.93,0,0,1,337.3,59a5.84,5.84,0,0,1-.48,2.12,18.53,18.53,0,0,1-1.15,2.32c-.44.74-1,1.58-1.56,2.51l-2.47,3.47-1.64.13-.63-4Z"/><path class="cls-2" d="M346.83,57a8.52,8.52,0,0,1,1.08.27l1.3-.37L347.8,67.18a1.35,1.35,0,0,0,0,.22.79.79,0,0,0,.09.42.3.3,0,0,0,.24.15,1.07,1.07,0,0,0,.38-.1,4.24,4.24,0,0,0,.57-.38l.33.57a2.07,2.07,0,0,1-.46.5,3.63,3.63,0,0,1-.88.58,2.45,2.45,0,0,1-1.08.26,1.5,1.5,0,0,1-1.06-.35,1.35,1.35,0,0,1-.32-1.1l.07-.69A7.11,7.11,0,0,1,344,68.78a3.41,3.41,0,0,1-1.9.62,2.82,2.82,0,0,1-2.54-1.23,6,6,0,0,1-.81-3.34,8.58,8.58,0,0,1,.85-3.59,8.3,8.3,0,0,1,2.45-3.11,5.81,5.81,0,0,1,3.68-1.25A5.88,5.88,0,0,1,346.83,57Zm0,1.54a2.56,2.56,0,0,0-1.38-.33,3.23,3.23,0,0,0-2.42,1,6.49,6.49,0,0,0-1.48,2.51,9.56,9.56,0,0,0-.49,2.92c0,2.21.51,3.32,1.53,3.32a2.82,2.82,0,0,0,1.75-.74,8.27,8.27,0,0,0,1.57-1.67Z"/><path class="cls-2" d="M352.19,58.39l.2-1,2.64-.56.51.26-.22,2.48a6.27,6.27,0,0,1,.8-1.17,5.23,5.23,0,0,1,1.34-1.1,3.48,3.48,0,0,1,1.74-.46,1,1,0,0,1,.65.14l-.48,2.32a2.36,2.36,0,0,0-1.11-.18,3.11,3.11,0,0,0-1.75.59,4.21,4.21,0,0,0-1.44,1.89l-1,7.75H352L353.27,59Z"/><path class="cls-2" d="M368.49,57.22a2.26,2.26,0,0,1,1,.94,2.6,2.6,0,0,1,.34,1.35,3.26,3.26,0,0,1-1.25,2.56,8.5,8.5,0,0,1-2.95,1.6,9.58,9.58,0,0,1-2.92.55c0,.19,0,.34,0,.44a4.87,4.87,0,0,0,.24,1.51,2.86,2.86,0,0,0,.75,1.23,1.85,1.85,0,0,0,1.33.49,4.76,4.76,0,0,0,1.83-.38,5.9,5.9,0,0,0,1.8-1.2l.51.91a5,5,0,0,1-1,1,6.22,6.22,0,0,1-1.55.86,5.17,5.17,0,0,1-1.87.35,4.2,4.2,0,0,1-2.44-.67A3.93,3.93,0,0,1,360.86,67a5.51,5.51,0,0,1-.43-2.34,9.46,9.46,0,0,1,.9-3.79A7.74,7.74,0,0,1,363.62,58a5.18,5.18,0,0,1,3.17-1.09A3.93,3.93,0,0,1,368.49,57.22Zm-1.24,1.32a1.27,1.27,0,0,0-1-.39,2.35,2.35,0,0,0-1.76.81,6,6,0,0,0-1.18,1.94A9,9,0,0,0,362.8,63a5.77,5.77,0,0,0,2.07-.43,5.49,5.49,0,0,0,1.94-1.18,2.3,2.3,0,0,0,.81-1.73A1.68,1.68,0,0,0,367.25,58.54Z"/></svg>